<svg xmlns="http://www.w3.org/2000/svg" viewBox="0 0 512 512" width="512" height="512">
  <!-- Background -->
  <rect width="512" height="512" rx="80" fill="#0f172a"/>
  <!-- Book body -->
  <rect x="128" y="140" width="256" height="220" rx="14" fill="#f8fafc"/>
  <!-- Book spine -->
  <rect x="128" y="140" width="28" height="220" rx="8" fill="#cbd5e1"/>
  <!-- Lines on book -->
  <rect x="174" y="185" width="180" height="14" rx="7" fill="#94a3b8"/>
  <rect x="174" y="215" width="140" height="14" rx="7" fill="#94a3b8"/>
  <rect x="174" y="245" width="160" height="14" rx="7" fill="#94a3b8"/>
  <rect x="174" y="275" width="120" height="14" rx="7" fill="#94a3b8"/>
  <!-- Calendar badge (bottom-right) -->
  <rect x="290" y="288" width="130" height="110" rx="16" fill="#3b82f6"/>
  <rect x="290" y="288" width="130" height="36" rx="16" fill="#2563eb"/>
  <rect x="290" y="312" width="130" height="12" fill="#2563eb"/>
  <!-- Calendar grid dots -->
  <circle cx="323" cy="352" r="8" fill="white"/>
  <circle cx="355" cy="352" r="8" fill="white"/>
  <circle cx="387" cy="352" r="8" fill="white"/>
  <circle cx="323" cy="378" r="8" fill="white"/>
  <circle cx="355" cy="378" r="8" fill="#93c5fd"/>
  <circle cx="387" cy="378" r="8" fill="white"/>
</svg>
